<?xml version="1.0" encoding="UTF-8" standalone="no"?>
<!DOCTYPE svg PUBLIC "-//W3C//DTD SVG 1.1//EN" "http://www.w3.org/Graphics/SVG/1.1/DTD/svg11.dtd">
<svg width="100%" height="100%" viewBox="0 0 227867 53809" version="1.1" xmlns="http://www.w3.org/2000/svg" xmlns:xlink="http://www.w3.org/1999/xlink" xml:space="preserve" xmlns:serif="http://www.serif.com/" style="fill-rule:evenodd;clip-rule:evenodd;stroke-linejoin:round;stroke-miterlimit:2;">
    <g transform="matrix(4.16667,0,0,4.16667,0,0)">
        <g transform="matrix(4.16667,0,0,4.16667,-0.185139,-0.0430556)">
            <g transform="matrix(4.71955,0,0,4.71955,-215.158,1925.59)">
                <g transform="matrix(600,0,0,600,0,0)">
                    <path d="M0.405,-0.68L0.076,-0.68L0.076,0L0.24,0L0.24,-0.169L0.36,-0.169L0.462,0L0.666,0L0.526,-0.205C0.599,-0.244 0.647,-0.327 0.647,-0.425C0.647,-0.573 0.543,-0.68 0.405,-0.68ZM0.382,-0.528C0.437,-0.528 0.482,-0.481 0.482,-0.425C0.482,-0.368 0.437,-0.321 0.381,-0.321L0.24,-0.321L0.24,-0.528L0.382,-0.528Z" style="fill:white;fill-rule:nonzero;"/>
                </g>
                <g transform="matrix(600,0,0,600,424.2,0)">
                    <path d="M0.076,-0.68L0.076,0L0.597,0L0.597,-0.152L0.24,-0.152L0.24,-0.269L0.538,-0.269L0.538,-0.411L0.24,-0.411L0.24,-0.528L0.597,-0.528L0.597,-0.68L0.076,-0.68Z" style="fill:white;fill-rule:nonzero;"/>
                </g>
                <g transform="matrix(600,0,0,600,816.6,0)">
                    <path d="M0.74,-0.68L0.575,-0.68L0.575,-0.265L0.231,-0.68L0.066,-0.68L0.066,0L0.231,0L0.231,-0.416L0.575,0L0.74,0L0.74,-0.68Z" style="fill:white;fill-rule:nonzero;"/>
                </g>
                <g transform="matrix(600,0,0,600,1300.8,0)">
                    <path d="M0.684,-0.68L0.036,-0.68L0.036,-0.528L0.277,-0.528L0.277,0L0.443,0L0.443,-0.528L0.684,-0.528L0.684,-0.68Z" style="fill:white;fill-rule:nonzero;"/>
                </g>
                <g transform="matrix(600,0,0,600,1875,0)">
                    <path d="M0.914,-0.68L0.731,-0.68L0.495,-0.181L0.258,-0.68L0.076,-0.68L0.076,0L0.24,0L0.24,-0.347L0.403,0L0.586,0L0.749,-0.347L0.749,0L0.914,0L0.914,-0.68Z" style="fill:white;fill-rule:nonzero;"/>
                </g>
                <g transform="matrix(600,0,0,600,2468.4,0)">
                    <path d="M0.076,-0.68L0.076,0L0.597,0L0.597,-0.152L0.24,-0.152L0.24,-0.269L0.538,-0.269L0.538,-0.411L0.24,-0.411L0.24,-0.528L0.597,-0.528L0.597,-0.68L0.076,-0.68Z" style="fill:white;fill-rule:nonzero;"/>
                </g>
            </g>
            <g transform="matrix(4.16667,0,0,4.16667,1847.51,2965.96)">
                <g transform="matrix(150,0,0,150,0,0)">
                    <path d="M0.177,-0.077L0.514,-0.077L0.514,0L0.083,0L0.083,-0.711L0.177,-0.711L0.177,-0.077Z" style="fill:white;fill-rule:nonzero;"/>
                </g>
                <g transform="matrix(150,0,0,150,80.7129,0)">
                    <path d="M0.288,0.01C0.216,0.01 0.158,-0.014 0.113,-0.061C0.068,-0.108 0.045,-0.171 0.045,-0.25L0.045,-0.266C0.045,-0.319 0.055,-0.365 0.075,-0.406C0.095,-0.448 0.123,-0.48 0.159,-0.503C0.195,-0.526 0.234,-0.538 0.276,-0.538C0.345,-0.538 0.398,-0.515 0.437,-0.47C0.475,-0.425 0.494,-0.36 0.494,-0.276L0.494,-0.238L0.136,-0.238C0.137,-0.186 0.152,-0.144 0.181,-0.112C0.211,-0.08 0.248,-0.064 0.292,-0.064C0.324,-0.064 0.351,-0.07 0.374,-0.083C0.396,-0.097 0.415,-0.114 0.432,-0.135L0.487,-0.092C0.443,-0.024 0.376,0.01 0.288,0.01ZM0.276,-0.464C0.24,-0.464 0.209,-0.451 0.185,-0.424C0.16,-0.398 0.145,-0.36 0.139,-0.313L0.403,-0.313L0.403,-0.319C0.401,-0.365 0.388,-0.401 0.366,-0.426C0.344,-0.451 0.314,-0.464 0.276,-0.464Z" style="fill:white;fill-rule:nonzero;"/>
                </g>
                <g transform="matrix(150,0,0,150,160.181,0)">
                    <path d="M0.154,-0.528L0.157,-0.462C0.197,-0.513 0.25,-0.538 0.315,-0.538C0.427,-0.538 0.483,-0.475 0.484,-0.349L0.484,0L0.394,0L0.394,-0.35C0.393,-0.388 0.385,-0.416 0.367,-0.434C0.35,-0.452 0.324,-0.461 0.288,-0.461C0.258,-0.461 0.233,-0.454 0.21,-0.438C0.188,-0.422 0.171,-0.402 0.159,-0.376L0.159,0L0.068,0L0.068,-0.528L0.154,-0.528Z" style="fill:white;fill-rule:nonzero;"/>
                </g>
                <g transform="matrix(150,0,0,150,242.944,0)">
                    <path d="M0.046,-0.269C0.046,-0.35 0.066,-0.415 0.104,-0.464C0.142,-0.513 0.193,-0.538 0.255,-0.538C0.317,-0.538 0.366,-0.517 0.402,-0.475L0.402,-0.75L0.492,-0.75L0.492,0L0.409,0L0.405,-0.057C0.369,-0.012 0.318,0.01 0.254,0.01C0.193,0.01 0.143,-0.015 0.104,-0.065C0.066,-0.116 0.046,-0.181 0.046,-0.262L0.046,-0.269ZM0.137,-0.258C0.137,-0.198 0.149,-0.152 0.174,-0.118C0.199,-0.084 0.233,-0.067 0.276,-0.067C0.334,-0.067 0.375,-0.093 0.402,-0.144L0.402,-0.387C0.375,-0.437 0.333,-0.461 0.277,-0.461C0.233,-0.461 0.199,-0.444 0.174,-0.41C0.149,-0.376 0.137,-0.325 0.137,-0.258Z" style="fill:white;fill-rule:nonzero;"/>
                </g>
                <g transform="matrix(150,0,0,150,327.539,0)">
                    <path d="M0.167,0L0.076,0L0.076,-0.528L0.167,-0.528L0.167,0ZM0.069,-0.668C0.069,-0.683 0.073,-0.695 0.082,-0.706C0.091,-0.716 0.104,-0.721 0.122,-0.721C0.14,-0.721 0.153,-0.716 0.162,-0.706C0.171,-0.695 0.176,-0.683 0.176,-0.668C0.176,-0.654 0.171,-0.642 0.162,-0.632C0.153,-0.622 0.14,-0.617 0.122,-0.617C0.104,-0.617 0.091,-0.622 0.082,-0.632C0.073,-0.642 0.069,-0.654 0.069,-0.668Z" style="fill:white;fill-rule:nonzero;"/>
                </g>
                <g transform="matrix(150,0,0,150,363.94,0)">
                    <path d="M0.154,-0.528L0.157,-0.462C0.197,-0.513 0.25,-0.538 0.315,-0.538C0.427,-0.538 0.483,-0.475 0.484,-0.349L0.484,0L0.394,0L0.394,-0.35C0.393,-0.388 0.385,-0.416 0.367,-0.434C0.35,-0.452 0.324,-0.461 0.288,-0.461C0.258,-0.461 0.233,-0.454 0.21,-0.438C0.188,-0.422 0.171,-0.402 0.159,-0.376L0.159,0L0.068,0L0.068,-0.528L0.154,-0.528Z" style="fill:white;fill-rule:nonzero;"/>
                </g>
                <g transform="matrix(150,0,0,150,446.704,0)">
                    <path d="M0.047,-0.269C0.047,-0.351 0.066,-0.416 0.104,-0.465C0.142,-0.514 0.193,-0.538 0.255,-0.538C0.32,-0.538 0.37,-0.515 0.406,-0.47L0.411,-0.528L0.493,-0.528L0.493,-0.013C0.493,0.056 0.473,0.11 0.432,0.149C0.392,0.188 0.337,0.208 0.269,0.208C0.231,0.208 0.194,0.2 0.157,0.184C0.121,0.167 0.093,0.145 0.074,0.117L0.121,0.063C0.159,0.11 0.207,0.134 0.263,0.134C0.307,0.134 0.341,0.122 0.365,0.097C0.39,0.072 0.402,0.038 0.402,-0.007L0.402,-0.053C0.366,-0.011 0.317,0.01 0.254,0.01C0.193,0.01 0.142,-0.015 0.104,-0.065C0.066,-0.115 0.047,-0.183 0.047,-0.269ZM0.138,-0.258C0.138,-0.199 0.15,-0.152 0.174,-0.118C0.199,-0.084 0.233,-0.067 0.277,-0.067C0.334,-0.067 0.376,-0.093 0.402,-0.145L0.402,-0.386C0.375,-0.436 0.333,-0.461 0.278,-0.461C0.234,-0.461 0.2,-0.444 0.175,-0.41C0.15,-0.376 0.138,-0.325 0.138,-0.258Z" style="fill:white;fill-rule:nonzero;"/>
                </g>
                <g transform="matrix(150,0,0,150,567.993,0)">
                    <path d="M0.395,0C0.389,-0.01 0.385,-0.029 0.382,-0.056C0.34,-0.012 0.29,0.01 0.231,0.01C0.179,0.01 0.137,-0.005 0.103,-0.034C0.07,-0.064 0.053,-0.101 0.053,-0.146C0.053,-0.201 0.074,-0.244 0.116,-0.275C0.158,-0.305 0.217,-0.32 0.292,-0.32L0.38,-0.32L0.38,-0.362C0.38,-0.393 0.371,-0.419 0.352,-0.437C0.333,-0.456 0.305,-0.465 0.269,-0.465C0.236,-0.465 0.209,-0.457 0.188,-0.441C0.166,-0.425 0.155,-0.405 0.155,-0.382L0.064,-0.382C0.064,-0.408 0.073,-0.434 0.092,-0.458C0.111,-0.483 0.136,-0.502 0.168,-0.517C0.2,-0.531 0.236,-0.538 0.274,-0.538C0.335,-0.538 0.382,-0.523 0.417,-0.492C0.451,-0.462 0.469,-0.42 0.471,-0.367L0.471,-0.124C0.471,-0.075 0.477,-0.036 0.489,-0.008L0.489,0L0.395,0ZM0.245,-0.069C0.273,-0.069 0.3,-0.076 0.325,-0.091C0.351,-0.105 0.369,-0.125 0.38,-0.148L0.38,-0.256L0.31,-0.256C0.199,-0.256 0.144,-0.224 0.144,-0.159C0.144,-0.131 0.153,-0.109 0.172,-0.093C0.191,-0.077 0.215,-0.069 0.245,-0.069Z" style="fill:white;fill-rule:nonzero;"/>
                </g>
                <g transform="matrix(150,0,0,150,649.585,0)">
                    <path d="M0.154,-0.528L0.157,-0.462C0.197,-0.513 0.25,-0.538 0.315,-0.538C0.427,-0.538 0.483,-0.475 0.484,-0.349L0.484,0L0.394,0L0.394,-0.35C0.393,-0.388 0.385,-0.416 0.367,-0.434C0.35,-0.452 0.324,-0.461 0.288,-0.461C0.258,-0.461 0.233,-0.454 0.21,-0.438C0.188,-0.422 0.171,-0.402 0.159,-0.376L0.159,0L0.068,0L0.068,-0.528L0.154,-0.528Z" style="fill:white;fill-rule:nonzero;"/>
                </g>
                <g transform="matrix(150,0,0,150,732.349,0)">
                    <path d="M0.046,-0.269C0.046,-0.35 0.066,-0.415 0.104,-0.464C0.142,-0.513 0.193,-0.538 0.255,-0.538C0.317,-0.538 0.366,-0.517 0.402,-0.475L0.402,-0.75L0.492,-0.75L0.492,0L0.409,0L0.405,-0.057C0.369,-0.012 0.318,0.01 0.254,0.01C0.193,0.01 0.143,-0.015 0.104,-0.065C0.066,-0.116 0.046,-0.181 0.046,-0.262L0.046,-0.269ZM0.137,-0.258C0.137,-0.198 0.149,-0.152 0.174,-0.118C0.199,-0.084 0.233,-0.067 0.276,-0.067C0.334,-0.067 0.375,-0.093 0.402,-0.144L0.402,-0.387C0.375,-0.437 0.333,-0.461 0.277,-0.461C0.233,-0.461 0.199,-0.444 0.174,-0.41C0.149,-0.376 0.137,-0.325 0.137,-0.258Z" style="fill:white;fill-rule:nonzero;"/>
                </g>
                <g transform="matrix(150,0,0,150,854.077,0)">
                    <path d="M0.083,0L0.083,-0.711L0.315,-0.711C0.392,-0.711 0.45,-0.695 0.489,-0.663C0.528,-0.631 0.547,-0.584 0.547,-0.521C0.547,-0.488 0.538,-0.459 0.519,-0.433C0.5,-0.408 0.474,-0.388 0.442,-0.374C0.48,-0.363 0.511,-0.343 0.533,-0.313C0.555,-0.283 0.566,-0.247 0.566,-0.205C0.566,-0.141 0.546,-0.091 0.504,-0.055C0.463,-0.018 0.405,0 0.329,0L0.083,0ZM0.176,-0.333L0.176,-0.077L0.331,-0.077C0.375,-0.077 0.409,-0.088 0.434,-0.111C0.46,-0.133 0.472,-0.164 0.472,-0.204C0.472,-0.29 0.426,-0.333 0.333,-0.333L0.176,-0.333ZM0.176,-0.408L0.318,-0.408C0.359,-0.408 0.392,-0.418 0.416,-0.438C0.441,-0.459 0.453,-0.487 0.453,-0.522C0.453,-0.561 0.442,-0.589 0.419,-0.607C0.396,-0.625 0.361,-0.634 0.315,-0.634L0.176,-0.634L0.176,-0.408Z" style="fill:white;fill-rule:nonzero;"/>
                </g>
                <g transform="matrix(150,0,0,150,947.461,0)">
                    <path d="M0.044,-0.269C0.044,-0.321 0.055,-0.367 0.075,-0.409C0.095,-0.45 0.124,-0.482 0.16,-0.504C0.196,-0.527 0.238,-0.538 0.284,-0.538C0.356,-0.538 0.414,-0.513 0.459,-0.463C0.503,-0.414 0.525,-0.347 0.525,-0.265L0.525,-0.258C0.525,-0.207 0.516,-0.161 0.496,-0.12C0.476,-0.079 0.448,-0.047 0.411,-0.024C0.375,-0.002 0.333,0.01 0.285,0.01C0.214,0.01 0.156,-0.015 0.111,-0.065C0.067,-0.115 0.044,-0.181 0.044,-0.263L0.044,-0.269ZM0.135,-0.258C0.135,-0.2 0.149,-0.153 0.176,-0.117C0.203,-0.082 0.24,-0.064 0.285,-0.064C0.331,-0.064 0.368,-0.082 0.395,-0.118C0.422,-0.154 0.435,-0.204 0.435,-0.269C0.435,-0.327 0.421,-0.374 0.394,-0.41C0.366,-0.446 0.33,-0.464 0.284,-0.464C0.24,-0.464 0.204,-0.446 0.176,-0.411C0.149,-0.375 0.135,-0.324 0.135,-0.258Z" style="fill:white;fill-rule:nonzero;"/>
                </g>
                <g transform="matrix(150,0,0,150,1033.01,0)">
                    <path d="M0.324,-0.447C0.31,-0.45 0.295,-0.451 0.279,-0.451C0.22,-0.451 0.18,-0.425 0.159,-0.375L0.159,0L0.068,0L0.068,-0.528L0.156,-0.528L0.158,-0.467C0.187,-0.514 0.229,-0.538 0.284,-0.538C0.301,-0.538 0.315,-0.536 0.324,-0.531L0.324,-0.447Z" style="fill:white;fill-rule:nonzero;"/>
                </g>
                <g transform="matrix(150,0,0,150,1083.76,0)">
                    <path d="M0.324,-0.447C0.31,-0.45 0.295,-0.451 0.279,-0.451C0.22,-0.451 0.18,-0.425 0.159,-0.375L0.159,0L0.068,0L0.068,-0.528L0.156,-0.528L0.158,-0.467C0.187,-0.514 0.229,-0.538 0.284,-0.538C0.301,-0.538 0.315,-0.536 0.324,-0.531L0.324,-0.447Z" style="fill:white;fill-rule:nonzero;"/>
                </g>
                <g transform="matrix(150,0,0,150,1133.06,0)">
                    <path d="M0.044,-0.269C0.044,-0.321 0.055,-0.367 0.075,-0.409C0.095,-0.45 0.124,-0.482 0.16,-0.504C0.196,-0.527 0.238,-0.538 0.284,-0.538C0.356,-0.538 0.414,-0.513 0.459,-0.463C0.503,-0.414 0.525,-0.347 0.525,-0.265L0.525,-0.258C0.525,-0.207 0.516,-0.161 0.496,-0.12C0.476,-0.079 0.448,-0.047 0.411,-0.024C0.375,-0.002 0.333,0.01 0.285,0.01C0.214,0.01 0.156,-0.015 0.111,-0.065C0.067,-0.115 0.044,-0.181 0.044,-0.263L0.044,-0.269ZM0.135,-0.258C0.135,-0.2 0.149,-0.153 0.176,-0.117C0.203,-0.082 0.24,-0.064 0.285,-0.064C0.331,-0.064 0.368,-0.082 0.395,-0.118C0.422,-0.154 0.435,-0.204 0.435,-0.269C0.435,-0.327 0.421,-0.374 0.394,-0.41C0.366,-0.446 0.33,-0.464 0.284,-0.464C0.24,-0.464 0.204,-0.446 0.176,-0.411C0.149,-0.375 0.135,-0.324 0.135,-0.258Z" style="fill:white;fill-rule:nonzero;"/>
                </g>
                <g transform="matrix(150,0,0,150,1218.6,0)">
                    <path d="M0.536,-0.125L0.638,-0.528L0.728,-0.528L0.574,0L0.501,0L0.373,-0.4L0.248,0L0.174,0L0.021,-0.528L0.111,-0.528L0.215,-0.133L0.338,-0.528L0.411,-0.528L0.536,-0.125Z" style="fill:white;fill-rule:nonzero;"/>
                </g>
                <g transform="matrix(150,0,0,150,1331.32,0)">
                    <path d="M0.167,0L0.076,0L0.076,-0.528L0.167,-0.528L0.167,0ZM0.069,-0.668C0.069,-0.683 0.073,-0.695 0.082,-0.706C0.091,-0.716 0.104,-0.721 0.122,-0.721C0.14,-0.721 0.153,-0.716 0.162,-0.706C0.171,-0.695 0.176,-0.683 0.176,-0.668C0.176,-0.654 0.171,-0.642 0.162,-0.632C0.153,-0.622 0.14,-0.617 0.122,-0.617C0.104,-0.617 0.091,-0.622 0.082,-0.632C0.073,-0.642 0.069,-0.654 0.069,-0.668Z" style="fill:white;fill-rule:nonzero;"/>
                </g>
                <g transform="matrix(150,0,0,150,1367.72,0)">
                    <path d="M0.154,-0.528L0.157,-0.462C0.197,-0.513 0.25,-0.538 0.315,-0.538C0.427,-0.538 0.483,-0.475 0.484,-0.349L0.484,0L0.394,0L0.394,-0.35C0.393,-0.388 0.385,-0.416 0.367,-0.434C0.35,-0.452 0.324,-0.461 0.288,-0.461C0.258,-0.461 0.233,-0.454 0.21,-0.438C0.188,-0.422 0.171,-0.402 0.159,-0.376L0.159,0L0.068,0L0.068,-0.528L0.154,-0.528Z" style="fill:white;fill-rule:nonzero;"/>
                </g>
                <g transform="matrix(150,0,0,150,1450.49,0)">
                    <path d="M0.047,-0.269C0.047,-0.351 0.066,-0.416 0.104,-0.465C0.142,-0.514 0.193,-0.538 0.255,-0.538C0.32,-0.538 0.37,-0.515 0.406,-0.47L0.411,-0.528L0.493,-0.528L0.493,-0.013C0.493,0.056 0.473,0.11 0.432,0.149C0.392,0.188 0.337,0.208 0.269,0.208C0.231,0.208 0.194,0.2 0.157,0.184C0.121,0.167 0.093,0.145 0.074,0.117L0.121,0.063C0.159,0.11 0.207,0.134 0.263,0.134C0.307,0.134 0.341,0.122 0.365,0.097C0.39,0.072 0.402,0.038 0.402,-0.007L0.402,-0.053C0.366,-0.011 0.317,0.01 0.254,0.01C0.193,0.01 0.142,-0.015 0.104,-0.065C0.066,-0.115 0.047,-0.183 0.047,-0.269ZM0.138,-0.258C0.138,-0.199 0.15,-0.152 0.174,-0.118C0.199,-0.084 0.233,-0.067 0.277,-0.067C0.334,-0.067 0.376,-0.093 0.402,-0.145L0.402,-0.386C0.375,-0.436 0.333,-0.461 0.278,-0.461C0.234,-0.461 0.2,-0.444 0.175,-0.41C0.15,-0.376 0.138,-0.325 0.138,-0.258Z" style="fill:white;fill-rule:nonzero;"/>
                </g>
                <g transform="matrix(150,0,0,150,1571.78,0)">
                    <path d="M0.204,-0.711L0.436,-0.131L0.668,-0.711L0.79,-0.711L0.79,0L0.696,0L0.696,-0.277L0.705,-0.576L0.472,0L0.4,0L0.167,-0.574L0.176,-0.277L0.176,0L0.083,0L0.083,-0.711L0.204,-0.711Z" style="fill:white;fill-rule:nonzero;"/>
                </g>
                <g transform="matrix(150,0,0,150,1702.73,0)">
                    <path d="M0.395,0C0.389,-0.01 0.385,-0.029 0.382,-0.056C0.34,-0.012 0.29,0.01 0.231,0.01C0.179,0.01 0.137,-0.005 0.103,-0.034C0.07,-0.064 0.053,-0.101 0.053,-0.146C0.053,-0.201 0.074,-0.244 0.116,-0.275C0.158,-0.305 0.217,-0.32 0.292,-0.32L0.38,-0.32L0.38,-0.362C0.38,-0.393 0.371,-0.419 0.352,-0.437C0.333,-0.456 0.305,-0.465 0.269,-0.465C0.236,-0.465 0.209,-0.457 0.188,-0.441C0.166,-0.425 0.155,-0.405 0.155,-0.382L0.064,-0.382C0.064,-0.408 0.073,-0.434 0.092,-0.458C0.111,-0.483 0.136,-0.502 0.168,-0.517C0.2,-0.531 0.236,-0.538 0.274,-0.538C0.335,-0.538 0.382,-0.523 0.417,-0.492C0.451,-0.462 0.469,-0.42 0.471,-0.367L0.471,-0.124C0.471,-0.075 0.477,-0.036 0.489,-0.008L0.489,0L0.395,0ZM0.245,-0.069C0.273,-0.069 0.3,-0.076 0.325,-0.091C0.351,-0.105 0.369,-0.125 0.38,-0.148L0.38,-0.256L0.31,-0.256C0.199,-0.256 0.144,-0.224 0.144,-0.159C0.144,-0.131 0.153,-0.109 0.172,-0.093C0.191,-0.077 0.215,-0.069 0.245,-0.069Z" style="fill:white;fill-rule:nonzero;"/>
                </g>
                <g transform="matrix(150,0,0,150,1784.33,0)">
                    <path d="M0.046,-0.269C0.046,-0.35 0.066,-0.415 0.104,-0.464C0.142,-0.513 0.193,-0.538 0.255,-0.538C0.317,-0.538 0.366,-0.517 0.402,-0.475L0.402,-0.75L0.492,-0.75L0.492,0L0.409,0L0.405,-0.057C0.369,-0.012 0.318,0.01 0.254,0.01C0.193,0.01 0.143,-0.015 0.104,-0.065C0.066,-0.116 0.046,-0.181 0.046,-0.262L0.046,-0.269ZM0.137,-0.258C0.137,-0.198 0.149,-0.152 0.174,-0.118C0.199,-0.084 0.233,-0.067 0.276,-0.067C0.334,-0.067 0.375,-0.093 0.402,-0.144L0.402,-0.387C0.375,-0.437 0.333,-0.461 0.277,-0.461C0.233,-0.461 0.199,-0.444 0.174,-0.41C0.149,-0.376 0.137,-0.325 0.137,-0.258Z" style="fill:white;fill-rule:nonzero;"/>
                </g>
                <g transform="matrix(150,0,0,150,1868.92,0)">
                    <path d="M0.288,0.01C0.216,0.01 0.158,-0.014 0.113,-0.061C0.068,-0.108 0.045,-0.171 0.045,-0.25L0.045,-0.266C0.045,-0.319 0.055,-0.365 0.075,-0.406C0.095,-0.448 0.123,-0.48 0.159,-0.503C0.195,-0.526 0.234,-0.538 0.276,-0.538C0.345,-0.538 0.398,-0.515 0.437,-0.47C0.475,-0.425 0.494,-0.36 0.494,-0.276L0.494,-0.238L0.136,-0.238C0.137,-0.186 0.152,-0.144 0.181,-0.112C0.211,-0.08 0.248,-0.064 0.292,-0.064C0.324,-0.064 0.351,-0.07 0.374,-0.083C0.396,-0.097 0.415,-0.114 0.432,-0.135L0.487,-0.092C0.443,-0.024 0.376,0.01 0.288,0.01ZM0.276,-0.464C0.24,-0.464 0.209,-0.451 0.185,-0.424C0.16,-0.398 0.145,-0.36 0.139,-0.313L0.403,-0.313L0.403,-0.319C0.401,-0.365 0.388,-0.401 0.366,-0.426C0.344,-0.451 0.314,-0.464 0.276,-0.464Z" style="fill:white;fill-rule:nonzero;"/>
                </g>
                <g transform="matrix(150,0,0,150,1985.52,0)">
                    <path d="M0.484,-0.329L0.176,-0.329L0.176,-0.077L0.534,-0.077L0.534,0L0.083,0L0.083,-0.711L0.529,-0.711L0.529,-0.634L0.176,-0.634L0.176,-0.405L0.484,-0.405L0.484,-0.329Z" style="fill:white;fill-rule:nonzero;"/>
                </g>
                <g transform="matrix(150,0,0,150,2070.78,0)">
                    <path d="M0.395,0C0.389,-0.01 0.385,-0.029 0.382,-0.056C0.34,-0.012 0.29,0.01 0.231,0.01C0.179,0.01 0.137,-0.005 0.103,-0.034C0.07,-0.064 0.053,-0.101 0.053,-0.146C0.053,-0.201 0.074,-0.244 0.116,-0.275C0.158,-0.305 0.217,-0.32 0.292,-0.32L0.38,-0.32L0.38,-0.362C0.38,-0.393 0.371,-0.419 0.352,-0.437C0.333,-0.456 0.305,-0.465 0.269,-0.465C0.236,-0.465 0.209,-0.457 0.188,-0.441C0.166,-0.425 0.155,-0.405 0.155,-0.382L0.064,-0.382C0.064,-0.408 0.073,-0.434 0.092,-0.458C0.111,-0.483 0.136,-0.502 0.168,-0.517C0.2,-0.531 0.236,-0.538 0.274,-0.538C0.335,-0.538 0.382,-0.523 0.417,-0.492C0.451,-0.462 0.469,-0.42 0.471,-0.367L0.471,-0.124C0.471,-0.075 0.477,-0.036 0.489,-0.008L0.489,0L0.395,0ZM0.245,-0.069C0.273,-0.069 0.3,-0.076 0.325,-0.091C0.351,-0.105 0.369,-0.125 0.38,-0.148L0.38,-0.256L0.31,-0.256C0.199,-0.256 0.144,-0.224 0.144,-0.159C0.144,-0.131 0.153,-0.109 0.172,-0.093C0.191,-0.077 0.215,-0.069 0.245,-0.069Z" style="fill:white;fill-rule:nonzero;"/>
                </g>
                <g transform="matrix(150,0,0,150,2152.37,0)">
                    <path d="M0.376,-0.14C0.376,-0.165 0.367,-0.184 0.348,-0.197C0.33,-0.211 0.298,-0.222 0.252,-0.232C0.206,-0.242 0.17,-0.253 0.143,-0.267C0.116,-0.281 0.097,-0.297 0.084,-0.316C0.071,-0.335 0.064,-0.357 0.064,-0.383C0.064,-0.427 0.083,-0.463 0.119,-0.493C0.156,-0.523 0.203,-0.538 0.26,-0.538C0.32,-0.538 0.368,-0.523 0.406,-0.492C0.443,-0.461 0.461,-0.421 0.461,-0.373L0.371,-0.373C0.371,-0.398 0.36,-0.419 0.339,-0.437C0.318,-0.455 0.292,-0.464 0.26,-0.464C0.227,-0.464 0.201,-0.457 0.183,-0.442C0.164,-0.428 0.155,-0.409 0.155,-0.386C0.155,-0.364 0.163,-0.348 0.181,-0.337C0.198,-0.326 0.229,-0.315 0.274,-0.305C0.319,-0.295 0.356,-0.283 0.384,-0.269C0.412,-0.255 0.433,-0.238 0.446,-0.219C0.46,-0.199 0.466,-0.175 0.466,-0.146C0.466,-0.099 0.447,-0.061 0.41,-0.033C0.372,-0.004 0.323,0.01 0.263,0.01C0.22,0.01 0.183,0.002 0.15,-0.013C0.118,-0.028 0.092,-0.049 0.074,-0.075C0.056,-0.102 0.046,-0.131 0.046,-0.163L0.137,-0.163C0.138,-0.132 0.15,-0.108 0.173,-0.091C0.196,-0.073 0.226,-0.064 0.263,-0.064C0.297,-0.064 0.324,-0.071 0.345,-0.085C0.366,-0.099 0.376,-0.117 0.376,-0.14Z" style="fill:white;fill-rule:nonzero;"/>
                </g>
                <g transform="matrix(150,0,0,150,2229.71,0)">
                    <path d="M0.241,-0.132L0.364,-0.528L0.461,-0.528L0.249,0.082C0.216,0.169 0.163,0.213 0.092,0.213L0.075,0.212L0.041,0.206L0.041,0.132L0.065,0.134C0.096,0.134 0.12,0.128 0.137,0.116C0.154,0.103 0.168,0.081 0.179,0.048L0.199,-0.006L0.011,-0.528L0.109,-0.528L0.241,-0.132Z" style="fill:white;fill-rule:nonzero;"/>
                </g>
            </g>
        </g>
    </g>
</svg>
