<?xml version="1.0" encoding="UTF-8" standalone="no"?>
<!DOCTYPE svg PUBLIC "-//W3C//DTD SVG 1.1//EN" "http://www.w3.org/Graphics/SVG/1.1/DTD/svg11.dtd">
<svg width="100%" height="100%" viewBox="0 0 3150 463" version="1.1" xmlns="http://www.w3.org/2000/svg" xmlns:xlink="http://www.w3.org/1999/xlink" xml:space="preserve" xmlns:serif="http://www.serif.com/" style="fill-rule:evenodd;clip-rule:evenodd;stroke-linejoin:round;stroke-miterlimit:2;">
    <g transform="matrix(1.13269,0,0,1.13269,-2226.55,-972.443)">
        <g transform="matrix(600,0,0,600,1920.13,1266.53)">
            <path d="M0.405,-0.68L0.076,-0.68L0.076,0L0.24,0L0.24,-0.169L0.36,-0.169L0.462,0L0.666,0L0.526,-0.205C0.599,-0.244 0.647,-0.327 0.647,-0.425C0.647,-0.573 0.543,-0.68 0.405,-0.68ZM0.382,-0.528C0.437,-0.528 0.482,-0.481 0.482,-0.425C0.482,-0.368 0.437,-0.321 0.381,-0.321L0.24,-0.321L0.24,-0.528L0.382,-0.528Z" style="fill:white;fill-rule:nonzero;"/>
        </g>
        <g transform="matrix(600,0,0,600,2344.33,1266.53)">
            <path d="M0.076,-0.68L0.076,0L0.597,0L0.597,-0.152L0.24,-0.152L0.24,-0.269L0.538,-0.269L0.538,-0.411L0.24,-0.411L0.24,-0.528L0.597,-0.528L0.597,-0.68L0.076,-0.68Z" style="fill:white;fill-rule:nonzero;"/>
        </g>
        <g transform="matrix(600,0,0,600,2736.73,1266.53)">
            <path d="M0.74,-0.68L0.575,-0.68L0.575,-0.265L0.231,-0.68L0.066,-0.68L0.066,0L0.231,0L0.231,-0.416L0.575,0L0.74,0L0.74,-0.68Z" style="fill:white;fill-rule:nonzero;"/>
        </g>
        <g transform="matrix(600,0,0,600,3220.93,1266.53)">
            <path d="M0.684,-0.68L0.036,-0.68L0.036,-0.528L0.277,-0.528L0.277,0L0.443,0L0.443,-0.528L0.684,-0.528L0.684,-0.68Z" style="fill:white;fill-rule:nonzero;"/>
        </g>
        <g transform="matrix(600,0,0,600,3795.13,1266.53)">
            <path d="M0.914,-0.68L0.731,-0.68L0.495,-0.181L0.258,-0.68L0.076,-0.68L0.076,0L0.24,0L0.24,-0.347L0.403,0L0.586,0L0.749,-0.347L0.749,0L0.914,0L0.914,-0.68Z" style="fill:white;fill-rule:nonzero;"/>
        </g>
        <g transform="matrix(600,0,0,600,4388.53,1266.53)">
            <path d="M0.076,-0.68L0.076,0L0.597,0L0.597,-0.152L0.24,-0.152L0.24,-0.269L0.538,-0.269L0.538,-0.411L0.24,-0.411L0.24,-0.528L0.597,-0.528L0.597,-0.68L0.076,-0.68Z" style="fill:white;fill-rule:nonzero;"/>
        </g>
    </g>
</svg>
