<?xml version="1.0" encoding="UTF-8" standalone="no"?>
<!DOCTYPE svg PUBLIC "-//W3C//DTD SVG 1.1//EN" "http://www.w3.org/Graphics/SVG/1.1/DTD/svg11.dtd">
<svg width="100%" height="100%" viewBox="0 0 38706 38705" version="1.1" xmlns="http://www.w3.org/2000/svg" xmlns:xlink="http://www.w3.org/1999/xlink" xml:space="preserve" xmlns:serif="http://www.serif.com/" style="fill-rule:evenodd;clip-rule:evenodd;stroke-linejoin:round;stroke-miterlimit:2;">
    <g transform="matrix(81.9368,0,0,81.9368,1760.69,36009.7)">
        <g>
            <g>
                <g transform="matrix(600,0,0,600,0,0)">
                    <path d="M0.405,-0.68L0.076,-0.68L0.076,0L0.24,0L0.24,-0.169L0.36,-0.169L0.462,0L0.666,0L0.526,-0.205C0.599,-0.244 0.647,-0.327 0.647,-0.425C0.647,-0.573 0.543,-0.68 0.405,-0.68ZM0.382,-0.528C0.437,-0.528 0.482,-0.481 0.482,-0.425C0.482,-0.368 0.437,-0.321 0.381,-0.321L0.24,-0.321L0.24,-0.528L0.382,-0.528Z" style="fill:white;fill-rule:nonzero;"/>
                </g>
            </g>
        </g>
    </g>
</svg>
