<?xml version="1.0" encoding="UTF-8" standalone="no"?>
<!DOCTYPE svg PUBLIC "-//W3C//DTD SVG 1.1//EN" "http://www.w3.org/Graphics/SVG/1.1/DTD/svg11.dtd">
<svg width="100%" height="100%" viewBox="0 0 400 400" version="1.1" xmlns="http://www.w3.org/2000/svg" xmlns:xlink="http://www.w3.org/1999/xlink" xml:space="preserve" xmlns:serif="http://www.serif.com/" style="fill-rule:evenodd;clip-rule:evenodd;stroke-linejoin:round;stroke-miterlimit:1.41421;">
    <g transform="matrix(4.16667,0,0,4.16667,0,0)">
        <g transform="matrix(0.659091,0,0,0.659091,13.7273,11.0909)">
            <path d="M23,64L64,64L64,52L58,44L44,60L34,50L23,64Z" style="fill:white;"/>
            <rect x="72" y="56" width="8" height="40" style="fill:white;"/>
            <rect x="56" y="72" width="40" height="8" style="fill:white;"/>
            <path d="M80,24L16,24L16,72L48,72L48,80L15.97,80C11.571,80 8,76.429 8,72.03L8,23.97C8,19.571 11.571,16 15.97,16L80.03,16C84.429,16 88,19.571 88,23.97L88,48L80,48L80,24Z" style="fill:white;"/>
        </g>
    </g>
</svg>
