<?xml version="1.0" encoding="UTF-8" standalone="no"?>
<!DOCTYPE svg PUBLIC "-//W3C//DTD SVG 1.1//EN" "http://www.w3.org/Graphics/SVG/1.1/DTD/svg11.dtd">
<svg width="100%" height="100%" viewBox="0 0 93 93" version="1.1" xmlns="http://www.w3.org/2000/svg" xmlns:xlink="http://www.w3.org/1999/xlink" xml:space="preserve" xmlns:serif="http://www.serif.com/" style="fill-rule:evenodd;clip-rule:evenodd;stroke-linejoin:round;stroke-miterlimit:2;">
    <g transform="matrix(1,0,0,1,-437,-276)">
        <g transform="matrix(0.302932,0,0,0.302932,369.446,257.218)">
            <path d="M376.5,62C461.219,62 530,130.781 530,215.5C530,300.219 461.219,369 376.5,369C291.781,369 223,300.219 223,215.5C223,130.781 291.781,62 376.5,62ZM403.194,215.5L471.218,147.476C474.901,143.792 474.901,137.812 471.218,134.129L457.871,120.782C454.188,117.099 448.208,117.099 444.524,120.782L376.5,188.806L308.476,120.782C304.792,117.099 298.812,117.099 295.129,120.782L281.782,134.129C278.099,137.812 278.099,143.792 281.782,147.476L349.806,215.5L281.782,283.524C278.099,287.208 278.099,293.188 281.782,296.871L295.129,310.218C298.812,313.901 304.792,313.901 308.476,310.218L376.5,242.194L444.524,310.218C448.208,313.901 454.188,313.901 457.871,310.218L471.218,296.871C474.901,293.188 474.901,287.208 471.218,283.524L403.194,215.5Z" style="fill:white;"/>
        </g>
    </g>
</svg>
